<svg xmlns="http://www.w3.org/2000/svg" xmlns:xlink="http://www.w3.org/1999/xlink" width="169.863" height="90.099" viewBox="0 0 169.863 90.099">
  <defs>
    <clipPath id="clip-path">
      <rect id="Rectangle_2006" data-name="Rectangle 2006" width="169.863" height="65.004" fill="none"/>
    </clipPath>
  </defs>
  <g id="Group_45754" data-name="Group 45754" transform="translate(-65 -202.15)">
    <g id="Group_45752" data-name="Group 45752" transform="translate(65 202.15)">
      <g id="Group_45751" data-name="Group 45751" transform="translate(0 0)" clip-path="url(#clip-path)">
        <path id="Path_44205" data-name="Path 44205" d="M1271.849,124.851a4.807,4.807,0,0,1,3.545,1.5,4.972,4.972,0,0,1,1.479,3.628,4.913,4.913,0,0,1-1.464,3.584,4.748,4.748,0,0,1-3.5,1.483,4.816,4.816,0,0,1-3.574-1.511,5.054,5.054,0,0,1-1.478-3.671,5.006,5.006,0,0,1,4.995-5.009" transform="translate(-1107.01 -104.258)"/>
        <path id="Path_44206" data-name="Path 44206" d="M41.026,132.814l-5.638,5.375q-5.753-6.08-12.944-6.081a14.185,14.185,0,0,0-14.382,14.38A15.123,15.123,0,0,0,9.9,154.01a13.192,13.192,0,0,0,5.206,5.158,15.116,15.116,0,0,0,7.479,1.873A15.409,15.409,0,0,0,29,159.73a22.988,22.988,0,0,0,6.386-4.769l5.465,5.7a30,30,0,0,1-8.867,6.351,24.209,24.209,0,0,1-9.529,1.771q-9.875,0-16.165-6.262T0,146.474a21.965,21.965,0,0,1,2.865-11.257,21.3,21.3,0,0,1,8.2-7.917,23.139,23.139,0,0,1,11.5-2.994,24.411,24.411,0,0,1,18.454,8.508" transform="translate(-0.001 -103.782)"/>
        <rect id="Rectangle_2004" data-name="Rectangle 2004" width="7.86" height="43.415" transform="translate(44.602 20.524)"/>
        <path id="Path_44207" data-name="Path 44207" d="M476.98,232.493H451.731a8.4,8.4,0,0,0,2.922,5.312,9.167,9.167,0,0,0,6.06,1.972,10.479,10.479,0,0,0,7.572-3.08l6.621,3.109a15.629,15.629,0,0,1-5.931,5.2,18.547,18.547,0,0,1-8.2,1.684,16.215,16.215,0,0,1-12.005-4.65,15.821,15.821,0,0,1-4.635-11.645,16.357,16.357,0,0,1,4.621-11.9,15.52,15.52,0,0,1,11.588-4.736,16.1,16.1,0,0,1,12.034,4.736q4.635,4.736,4.635,12.509Zm-7.86-6.19a7.887,7.887,0,0,0-3.071-4.261,8.9,8.9,0,0,0-5.321-1.641,9.41,9.41,0,0,0-5.767,1.843,10.27,10.27,0,0,0-2.884,4.059Z" transform="translate(-388.093 -181.941)"/>
        <path id="Path_44208" data-name="Path 44208" d="M757.608,214.557h7.86V245.88h-7.86v-3.311a15.407,15.407,0,0,1-4.615,3.153,12.921,12.921,0,0,1-5.018.964,13.94,13.94,0,0,1-10.5-4.707,16.42,16.42,0,0,1-4.428-11.7,16.827,16.827,0,0,1,4.285-11.89,13.651,13.651,0,0,1,10.41-4.635,13.233,13.233,0,0,1,5.29,1.065,14.447,14.447,0,0,1,4.573,3.2Zm-8.262,6.449a7.942,7.942,0,0,0-6.054,2.577,9.286,9.286,0,0,0-2.41,6.607,9.383,9.383,0,0,0,2.453,6.679,7.948,7.948,0,0,0,6.04,2.62,8.1,8.1,0,0,0,6.14-2.577,9.419,9.419,0,0,0,2.439-6.751,9.151,9.151,0,0,0-2.439-6.622,8.2,8.2,0,0,0-6.169-2.533" transform="translate(-640.559 -181.941)"/>
        <path id="Path_44209" data-name="Path 44209" d="M1018.321,214.557h7.859v3.21a18.852,18.852,0,0,1,4.844-3.135,11.7,11.7,0,0,1,4.442-.881,10.754,10.754,0,0,1,7.906,3.253q2.73,2.764,2.731,8.176v20.7h-7.773V232.163a34.711,34.711,0,0,0-.5-7.447,5.1,5.1,0,0,0-1.752-2.8,4.9,4.9,0,0,0-3.087-.964,5.786,5.786,0,0,0-4.093,1.6,8.519,8.519,0,0,0-2.37,4.414,35.581,35.581,0,0,0-.345,6.355V245.88h-7.859Z" transform="translate(-889.835 -181.941)"/>
        <rect id="Rectangle_2005" data-name="Rectangle 2005" width="7.86" height="31.323" transform="translate(160.909 32.616)"/>
        <path id="Path_44210" data-name="Path 44210" d="M645.529,121a12.077,12.077,0,0,0-11.943,12.092,11.956,11.956,0,0,0-6.088-10.461A12.217,12.217,0,0,0,621.388,121a12.188,12.188,0,0,0,6.162-1.6,11.675,11.675,0,0,0,4.415-4.436,12.086,12.086,0,0,0,1.62-6.056,11.7,11.7,0,0,0,3.5,8.566A11.489,11.489,0,0,0,645.529,121" transform="translate(-542.985 -90.324)" fill="#ffb621"/>
        <path id="Path_44211" data-name="Path 44211" d="M708.543,3.615a3.457,3.457,0,0,0-2.386.937,3.483,3.483,0,0,0-1.184,2.678,3.573,3.573,0,0,0-1.82-3.127,3.65,3.65,0,0,0-1.826-.487,3.642,3.642,0,0,0,1.842-.478,3.49,3.49,0,0,0,1.32-1.326A3.614,3.614,0,0,0,704.973,0a3.5,3.5,0,0,0,1.047,2.56,3.435,3.435,0,0,0,2.523,1.054" transform="translate(-614.462 4.765)" fill="#ffb621"/>
        <path id="Path_44212" data-name="Path 44212" d="M1285.382,140.447a3.575,3.575,0,0,0-3.536,3.58,3.54,3.54,0,0,0-1.8-3.1,3.617,3.617,0,0,0-1.808-.483,3.608,3.608,0,0,0,1.824-.473,3.457,3.457,0,0,0,1.307-1.313,3.579,3.579,0,0,0,.48-1.793,3.462,3.462,0,0,0,1.037,2.536,3.4,3.4,0,0,0,2.5,1.044" transform="translate(-1116.956 -114.758)" fill="#f5f6fa" opacity="0"/>
        <path id="Path_44213" data-name="Path 44213" d="M633.862,29.99a7.245,7.245,0,0,0-7.164,7.253,7.172,7.172,0,0,0-3.652-6.275,7.328,7.328,0,0,0-3.665-.978,7.311,7.311,0,0,0,3.7-.959,7,7,0,0,0,2.648-2.661,7.251,7.251,0,0,0,.972-3.633,7.016,7.016,0,0,0,2.1,5.138,6.891,6.891,0,0,0,5.062,2.115" transform="translate(-540.977 -13.645)"/>
      </g>
    </g>
    <text id="מנקים_את_הכל" data-name="מנקים את הכל" transform="translate(148.1 288.25)" font-size="16" font-family="Rubik-Medium, Rubik" font-weight="500"><tspan x="-48" y="0">מנקים את הכל</tspan></text>
  </g>
</svg>
